<svg width="328" height="164" viewBox="0 0 328 164" fill="none" xmlns="http://www.w3.org/2000/svg">
<g filter="url(#filter0_i_53_7)">
<g clip-path="url(#clip0_53_7)">
<rect width="328" height="164" fill="#7D54F1"/>
<g filter="url(#filter1_f_53_7)">
<path d="M77.8778 80.1556C-28.9519 12.4639 76.6926 -59.879 121.205 -61.4254C281.185 -105.959 337.89 35.276 265.65 80.1556C219.081 109.087 211.415 164.77 77.8778 80.1556Z" fill="#FF63F9"/>
</g>
<g opacity="0.7" filter="url(#filter2_f_53_7)">
<path d="M85.6552 297.616C-112.478 406.29 128.089 252.412 -62.1617 183.86C-107.55 153.614 -121.052 101.172 -26.1417 33.8487C68.7681 -33.4744 133.709 15.8065 87.4638 77.0209C41.2181 138.235 170.488 251.086 85.6552 297.616Z" fill="#7646FF"/>
</g>
<g opacity="0.7" filter="url(#filter3_f_53_7)">
<path d="M189.456 531.314C-124.563 439.979 281.926 518.139 179.231 172.319C170.704 69.0799 218.128 -26.4878 386.105 -5.52609C554.082 15.4357 559.375 172.116 444.856 204.315C330.336 236.514 323.907 570.42 189.456 531.314Z" fill="#FF723D"/>
</g>
</g>
<rect x="0.5" y="0.5" width="327" height="163" stroke="#FFA7FC"/>
</g>
<defs>
<filter id="filter0_i_53_7" x="0" y="0" width="328" height="164" filterUnits="userSpaceOnUse" color-interpolation-filters="sRGB">
<feFlood flood-opacity="0" result="BackgroundImageFix"/>
<feBlend mode="normal" in="SourceGraphic" in2="BackgroundImageFix" result="shape"/>
<feColorMatrix in="SourceAlpha" type="matrix" values="0 0 0 0 0 0 0 0 0 0 0 0 0 0 0 0 0 0 127 0" result="hardAlpha"/>
<feOffset/>
<feGaussianBlur stdDeviation="12"/>
<feComposite in2="hardAlpha" operator="arithmetic" k2="-1" k3="1"/>
<feColorMatrix type="matrix" values="0 0 0 0 1 0 0 0 0 0.654902 0 0 0 0 0.988235 0 0 0 1 0"/>
<feBlend mode="normal" in2="shape" result="effect1_innerShadow_53_7"/>
</filter>
<filter id="filter1_f_53_7" x="-152.389" y="-254.009" width="632.991" height="563.067" filterUnits="userSpaceOnUse" color-interpolation-filters="sRGB">
<feFlood flood-opacity="0" result="BackgroundImageFix"/>
<feBlend mode="normal" in="SourceGraphic" in2="BackgroundImageFix" result="shape"/>
<feGaussianBlur stdDeviation="92.0044" result="effect1_foregroundBlur_53_7"/>
</filter>
<filter id="filter2_f_53_7" x="-281.116" y="-182.506" width="580.378" height="701.846" filterUnits="userSpaceOnUse" color-interpolation-filters="sRGB">
<feFlood flood-opacity="0" result="BackgroundImageFix"/>
<feBlend mode="normal" in="SourceGraphic" in2="BackgroundImageFix" result="shape"/>
<feGaussianBlur stdDeviation="92.0044" result="effect1_foregroundBlur_53_7"/>
</filter>
<filter id="filter3_f_53_7" x="-54.6205" y="-131.111" width="700.078" height="788.278" filterUnits="userSpaceOnUse" color-interpolation-filters="sRGB">
<feFlood flood-opacity="0" result="BackgroundImageFix"/>
<feBlend mode="normal" in="SourceGraphic" in2="BackgroundImageFix" result="shape"/>
<feGaussianBlur stdDeviation="61.3363" result="effect1_foregroundBlur_53_7"/>
</filter>
<clipPath id="clip0_53_7">
<rect width="328" height="164" fill="white"/>
</clipPath>
</defs>
</svg>
