<?xml version="1.0" standalone="no"?>
<!DOCTYPE svg PUBLIC "-//W3C//DTD SVG 20010904//EN"
 "http://www.w3.org/TR/2001/REC-SVG-20010904/DTD/svg10.dtd">
<svg version="1.0" xmlns="http://www.w3.org/2000/svg"
 width="700.000000pt" height="700.000000pt" viewBox="0 0 700.000000 700.000000"
 preserveAspectRatio="xMidYMid meet">
<metadata>
Created by potrace 1.14, written by Peter Selinger 2001-2017
</metadata>
<g transform="translate(0.000000,700.000000) scale(0.100000,-0.100000)"
fill="#000000" stroke="none">
<path d="M0 3500 l0 -3500 3500 0 3500 0 0 3500 0 3500 -3500 0 -3500 0 0
-3500z m1150 405 l0 -255 150 0 150 0 2 253 3 252 160 0 160 0 0 -655 0 -655
-160 0 -160 0 -3 273 -2 272 -150 0 -150 0 0 -275 0 -275 -160 0 -160 0 0 660
0 660 160 0 160 0 0 -255z m1622 -385 c75 -349 137 -645 138 -657 0 -23 -1
-23 -159 -23 -143 0 -160 2 -165 18 -3 9 -14 71 -26 137 -12 66 -23 128 -26
138 -5 15 -21 17 -144 17 l-139 0 -7 -37 c-4 -21 -17 -90 -28 -153 l-21 -115
-162 -3 c-132 -2 -163 0 -163 11 0 13 266 1255 276 1290 5 16 23 17 247 15
l241 -3 138 -635z m963 629 c127 -23 187 -80 193 -184 8 -120 -42 -182 -196
-245 -203 -83 -272 -131 -272 -189 0 -44 23 -44 92 1 92 60 137 78 194 78 65
0 111 -29 142 -91 35 -70 42 -142 42 -421 l0 -258 -159 0 -160 0 -3 254 c-4
299 0 290 -104 301 -52 5 -72 13 -97 35 -28 25 -32 35 -31 77 1 70 24 107 129
208 105 101 123 136 85 167 -19 15 -41 18 -141 18 l-119 0 0 -530 0 -530 -160
0 -160 0 0 660 0 660 333 0 c198 0 357 -4 392 -11z m805 -31 c30 -116 87 -310
137 -463 30 -93 70 -228 89 -300 35 -129 35 -129 30 -60 -21 280 -26 370 -31
603 l-7 262 141 0 141 0 0 -660 0 -660 -207 2 -208 3 -18 60 c-10 33 -69 215
-132 405 -62 190 -121 373 -130 408 -10 34 -20 61 -22 58 -2 -2 2 -87 11 -188
8 -100 18 -310 22 -466 l6 -283 -143 3 -144 3 -3 645 c-1 355 0 651 3 658 3 9
59 12 229 12 l225 0 11 -42z m1354 34 c2 -4 66 -293 141 -642 75 -349 139
-643 141 -652 5 -17 -7 -18 -160 -18 l-165 0 -10 53 c-6 28 -19 97 -28 152
l-18 100 -142 3 -141 3 -16 -93 c-10 -51 -22 -121 -28 -155 l-11 -63 -164 0
c-90 0 -163 3 -163 8 0 4 63 299 140 655 77 357 140 651 140 653 0 8 479 4
484 -4z"/>
<path d="M2341 3662 c-23 -136 -45 -255 -48 -264 -4 -16 5 -18 97 -18 101 0
102 0 97 23 -3 12 -25 128 -48 257 -23 129 -45 238 -48 242 -4 4 -26 -104 -50
-240z"/>
<path d="M5647 3900 c-8 -23 -87 -473 -87 -498 0 -21 4 -22 95 -22 52 0 95 4
95 8 0 11 -90 505 -94 517 -2 6 -6 3 -9 -5z"/>
</g>
</svg>
